<svg width="160" height="80" viewBox="0 0 160 80" fill="none" xmlns="http://www.w3.org/2000/svg">
<path d="M94.2294 23.3093C94.8136 23.3093 95.2872 22.835 95.2872 22.2501V13.559C95.2872 12.7796 94.9552 12.0297 94.3759 11.5012L82.5618 0.735899C82.0413 0.261248 81.3655 0 80.6586 0C79.9516 0 79.2757 0.261382 78.7552 0.735763L66.9408 11.5015C66.3621 12.0291 66.0301 12.7791 66.0301 13.5592V37.4677C66.0301 38.24 66.3563 38.9845 66.9246 39.5104L78.739 50.4492C79.262 50.9333 79.9439 51.2 80.6586 51.2C81.3736 51.2 82.0554 50.9332 82.5778 50.4491L94.3919 39.5105C94.9608 38.9842 95.2872 38.2395 95.2872 37.4674V26.2041C95.2872 25.6191 94.8136 25.1449 94.2294 25.1449C93.6453 25.1449 93.1717 25.6191 93.1717 26.2041V36.016L88.261 34.4408V16.6076L93.1717 15.0153V22.2499C93.1717 22.835 93.6453 23.3093 94.2294 23.3093ZM79.6007 2.82899V9.40517L73.8554 14.6404L68.533 12.9144L79.6007 2.82899ZM68.1453 15.0154L73.0555 16.6078V34.441L68.1453 36.016V15.0154ZM79.6007 48.3622L68.534 38.1157L73.8484 36.4111L79.6007 41.737V48.3622ZM92.7824 38.1156L81.7162 48.3618V41.737L87.4681 36.4111L92.7824 38.1156ZM87.4612 14.6405L85.9413 13.2555C85.5095 12.8619 84.8405 12.8934 84.447 13.3259C84.0539 13.7585 84.0855 14.4285 84.5174 14.8222L86.1454 16.3057V34.7507L80.6584 39.8314L75.1711 34.7507V16.3057L80.6584 11.3054L81.8389 12.3809C82.2709 12.7745 82.9398 12.743 83.3331 12.3105C83.7263 11.8778 83.6947 11.208 83.2628 10.8143L81.7165 9.40504V2.82926L92.7839 12.9142L87.4612 14.6405Z" fill="#5B3EE4"/>
<path d="M22.2578 79.8464V64.3072H17.061V60.9024H31.269V64.3072H26.0466V79.8464H22.2578Z" fill="#5B3EE4"/>
<path d="M40.5114 80C39.2144 80 38.0794 79.8805 37.1066 79.6416C36.1338 79.3856 35.3146 78.9248 34.649 78.2592C34.0005 77.5765 33.5141 76.6037 33.1898 75.3408C32.8656 74.0779 32.7034 72.4309 32.7034 70.4C32.7034 68.3691 32.8656 66.7221 33.1898 65.4592C33.5312 64.1792 34.0261 63.1979 34.6746 62.5152C35.3232 61.8325 36.1338 61.3632 37.1066 61.1072C38.0794 60.8512 39.2144 60.7232 40.5114 60.7232C41.8085 60.7232 42.9434 60.8512 43.9162 61.1072C44.889 61.3632 45.6997 61.8325 46.3482 62.5152C46.9968 63.1979 47.4832 64.1792 47.8074 65.4592C48.1317 66.7221 48.2938 68.3691 48.2938 70.4C48.2938 72.4309 48.1317 74.0779 47.8074 75.3408C47.4832 76.6037 46.9968 77.5765 46.3482 78.2592C45.6997 78.9248 44.889 79.3856 43.9162 79.6416C42.9434 79.8805 41.8085 80 40.5114 80ZM40.5114 76.5952C41.2794 76.5952 41.9194 76.5099 42.4314 76.3392C42.9434 76.1685 43.3445 75.8699 43.6346 75.4432C43.9418 74.9995 44.1637 74.3765 44.3002 73.5744C44.4368 72.7552 44.505 71.6971 44.505 70.4C44.505 69.0347 44.4368 67.9424 44.3002 67.1232C44.1637 66.304 43.9418 65.6811 43.6346 65.2544C43.3445 64.8107 42.9434 64.512 42.4314 64.3584C41.9194 64.2048 41.2794 64.128 40.5114 64.128C39.7776 64.128 39.1546 64.2048 38.6426 64.3584C38.1306 64.512 37.7125 64.8107 37.3882 65.2544C37.081 65.6811 36.8506 66.304 36.697 67.1232C36.5605 67.9424 36.4922 69.0347 36.4922 70.4C36.4922 71.6971 36.552 72.7552 36.6714 73.5744C36.808 74.3765 37.0298 74.9995 37.337 75.4432C37.6442 75.8699 38.0538 76.1685 38.5658 76.3392C39.0949 76.5099 39.7434 76.5952 40.5114 76.5952Z" fill="#5B3EE4"/>
<path d="M51.0898 79.8464V60.9024H58.9234C59.6744 60.9024 60.3741 60.9963 61.0226 61.184C61.6712 61.3547 62.2429 61.6619 62.7378 62.1056C63.2328 62.5493 63.6168 63.1637 63.8898 63.9488C64.18 64.7339 64.325 65.7408 64.325 66.9696C64.325 67.84 64.2397 68.5824 64.069 69.1968C63.8984 69.8112 63.668 70.3147 63.3778 70.7072C63.1048 71.0997 62.789 71.4155 62.4306 71.6544C62.0722 71.8933 61.7053 72.0896 61.3298 72.2432L64.8626 79.8464H60.997L57.9506 72.832C57.7458 72.832 57.5069 72.832 57.2338 72.832C56.9778 72.8149 56.7133 72.8064 56.4402 72.8064C56.1672 72.8064 55.8941 72.8064 55.621 72.8064C55.348 72.8064 55.1005 72.7979 54.8786 72.7808V79.8464H51.0898ZM54.8786 69.7856H58.2578C58.5992 69.7856 58.9064 69.7429 59.1794 69.6576C59.4525 69.5723 59.6914 69.4272 59.8962 69.2224C60.101 69.0005 60.2546 68.7104 60.357 68.352C60.4765 67.9936 60.5362 67.5328 60.5362 66.9696C60.5362 66.4405 60.4765 66.0053 60.357 65.664C60.2546 65.3056 60.101 65.0325 59.8962 64.8448C59.6914 64.64 59.4525 64.5035 59.1794 64.4352C58.9064 64.3499 58.5992 64.3072 58.2578 64.3072H54.8786V69.7856Z" fill="#5B3EE4"/>
<path d="M66.6278 79.8464L68.8294 60.9024H72.4646L76.8166 75.4176L81.143 60.9024H84.7526L86.9798 79.8464H83.319L81.6806 65.8944L82.2694 65.9456L78.5574 79.8464H74.999L71.2358 65.9456L71.8758 65.92L70.2886 79.8464H66.6278Z" fill="#5B3EE4"/>
<path d="M88.5366 79.8464L94.4758 60.9024H99.263L105.202 79.8464H101.26L100.057 75.8784H93.6054L92.4278 79.8464H88.5366ZM94.5014 72.4736H99.1606L96.831 64.1536L94.5014 72.4736Z" fill="#5B3EE4"/>
<path d="M111.745 79.8464C110.772 79.8464 109.944 79.7013 109.262 79.4112C108.596 79.104 108.093 78.6261 107.751 77.9776C107.427 77.312 107.265 76.4416 107.265 75.3664V60.9024H111.054V74.752C111.054 75.1616 111.122 75.4944 111.258 75.7504C111.412 76.0064 111.617 76.1856 111.873 76.288C112.129 76.3733 112.419 76.416 112.743 76.416H118.734V79.8464H111.745Z" fill="#5B3EE4"/>
<path d="M120.965 79.8464V60.9024H124.754V79.8464H120.965Z" fill="#5B3EE4"/>
<path d="M128.168 79.8464V60.9024H131.214L139.15 73.3952V60.9024H142.939V79.8464H139.893L131.982 67.3536V79.8464H128.168Z" fill="#5B3EE4"/>
</svg>
